<svg width="24" height="24" viewBox="0 0 24 24" fill="none" xmlns="http://www.w3.org/2000/svg">
<rect width="24" height="24" rx="12" fill="white"/>
<path fill-rule="evenodd" clip-rule="evenodd" d="M5.11701 12C5.11728 12.0005 5.11756 12.0011 5.11783 12.0017C5.18157 12.1369 5.27966 12.3333 5.41401 12.5704C5.68332 13.0456 6.09499 13.6786 6.66308 14.3099C7.79852 15.5715 9.53171 16.8 12 16.8C14.4683 16.8 16.2015 15.5715 17.3369 14.3099C17.905 13.6786 18.3167 13.0456 18.586 12.5704C18.7203 12.3333 18.8184 12.1369 18.8822 12.0017C18.8824 12.0011 18.8827 12.0005 18.883 12C18.8827 11.9994 18.8824 11.9988 18.8822 11.9982C18.8184 11.863 18.7203 11.6667 18.586 11.4296C18.3167 10.9543 17.905 10.3213 17.3369 9.69008C16.2015 8.42848 14.4683 7.19997 12 7.19997C9.53171 7.19997 7.79852 8.42848 6.66308 9.69008C6.09499 10.3213 5.68332 10.9543 5.41401 11.4296C5.27966 11.6667 5.18157 11.863 5.11783 11.9982C5.11756 11.9988 5.11728 11.9994 5.11701 12ZM19.4667 12C19.9619 11.8019 19.9618 11.8017 19.9617 11.8014L19.9614 11.8008L19.9608 11.7992L19.9589 11.7947L19.9528 11.7798C19.9476 11.7673 19.9403 11.75 19.9308 11.728C19.9117 11.6841 19.8839 11.6217 19.847 11.5434C19.7732 11.3869 19.663 11.1666 19.514 10.9037C19.2167 10.3789 18.7617 9.67864 18.1297 8.97652C16.8652 7.57145 14.865 6.1333 12 6.1333C9.13493 6.1333 7.13479 7.57146 5.87023 8.97652C5.23833 9.67864 4.78334 10.3789 4.48599 10.9037C4.33701 11.1666 4.22676 11.3869 4.153 11.5434C4.1161 11.6217 4.08827 11.6841 4.06923 11.728C4.05971 11.75 4.05238 11.7673 4.04721 11.7798L4.04107 11.7947L4.03921 11.7992L4.03858 11.8008L4.03834 11.8014C4.03824 11.8017 4.03815 11.8019 4.53333 12L4.03815 11.8019C3.98728 11.929 3.98728 12.0709 4.03815 12.198L4.53333 12C4.03815 12.198 4.03824 12.1983 4.03834 12.1985L4.03858 12.1991L4.03921 12.2007L4.04107 12.2053L4.04721 12.2202C4.05238 12.2326 4.05971 12.2499 4.06923 12.2719C4.08827 12.3159 4.1161 12.3783 4.153 12.4566C4.22676 12.613 4.33701 12.8333 4.48599 13.0962C4.78334 13.621 5.23833 14.3213 5.87023 15.0234C7.13479 16.4285 9.13493 17.8666 12 17.8666C14.865 17.8666 16.8652 16.4285 18.1297 15.0234C18.7617 14.3213 19.2167 13.621 19.514 13.0962C19.663 12.8333 19.7732 12.613 19.847 12.4566C19.8839 12.3783 19.9117 12.3159 19.9308 12.2719C19.9403 12.2499 19.9476 12.2326 19.9528 12.2202L19.9589 12.2053L19.9608 12.2007L19.9614 12.1991L19.9617 12.1985C19.9618 12.1983 19.9619 12.198 19.4667 12ZM19.4667 12L19.9619 12.198C20.0127 12.0709 20.0127 11.929 19.9619 11.8019L19.4667 12ZM9.33333 12C9.33333 10.5272 10.5272 9.3333 12 9.3333C13.4728 9.3333 14.6667 10.5272 14.6667 12C14.6667 13.4727 13.4728 14.6666 12 14.6666C10.5272 14.6666 9.33333 13.4727 9.33333 12ZM12 10.4C11.1163 10.4 10.4 11.1163 10.4 12C10.4 12.8836 11.1163 13.6 12 13.6C12.8837 13.6 13.6 12.8836 13.6 12C13.6 11.1163 12.8837 10.4 12 10.4Z" fill="#FF868E"/>
</svg>
