<svg width="16" height="9" viewBox="0 0 16 9" fill="none" xmlns="http://www.w3.org/2000/svg">
<path fill-rule="evenodd" clip-rule="evenodd" d="M2.62475 2.50868C3.76019 3.77028 5.49337 4.99879 7.96165 4.99879C10.4299 4.99879 12.1631 3.77028 13.2986 2.50868C13.8667 1.87746 14.2783 1.24444 14.5477 0.769188C14.682 0.532092 14.7801 0.335737 14.8438 0.200538C14.8757 0.132981 14.8989 0.0808233 14.9137 0.0466333C14.9211 0.0295423 14.9264 0.0169545 14.9296 0.00919159L14.9329 0.0012112L14.9333 0.000363148C14.9332 0.000531264 14.9331 0.000719674 15.4283 0.198796C15.9235 0.396872 15.9234 0.397101 15.9233 0.397351L15.9231 0.397952L15.9225 0.399521L15.9206 0.404112L15.9145 0.418999C15.9093 0.431419 15.902 0.448779 15.8924 0.47075C15.8734 0.514685 15.8456 0.577111 15.8087 0.655387C15.7349 0.811855 15.6247 1.03217 15.4757 1.29507C15.1783 1.81982 14.7233 2.52013 14.0914 3.22224C13.8963 3.43899 13.6838 3.65652 13.4532 3.86943L15.2721 5.68834L14.5179 6.44258L12.6247 4.54943C11.5497 5.32836 10.183 5.94074 8.49499 6.04857L8.495 8.19879L7.42833 8.1988L7.42832 6.04857C5.74028 5.94075 4.37362 5.32837 3.29861 4.54944L1.40546 6.44258L0.651209 5.68834L2.4701 3.86944C2.23955 3.65652 2.02697 3.43899 1.8319 3.22224C1.2 2.52012 0.745006 1.81981 0.447651 1.29507C0.298673 1.03216 0.188431 0.811852 0.114668 0.655385C0.0777664 0.577109 0.0499344 0.514683 0.030896 0.470748C0.0213751 0.448776 0.0140477 0.431416 0.00887967 0.418997L0.00274077 0.404109L0.000876558 0.399518L0.00024424 0.397949L2.83322e-06 0.397348C-9.708e-05 0.397099 -0.000188764 0.39687 0.494999 0.198796C0.990187 0.000722281 0.990112 0.000533871 0.990045 0.000365754L0.98995 0.000129609L0.990391 0.00121378L0.993684 0.00919415C0.996914 0.0169571 1.00222 0.0295448 1.00962 0.0466358C1.02444 0.0808258 1.04765 0.132983 1.0795 0.20054C1.14323 0.335739 1.24132 0.532094 1.37568 0.76919C1.64498 1.24444 2.05666 1.87747 2.62475 2.50868ZM0.989904 1.65189e-05C0.989887 -2.52838e-05 0.989903 1.21956e-05 0.98995 0.000129609Z" fill="#FF868E"/>
</svg>
